<?xml version="1.0" encoding="UTF-8" standalone="no"?>
<svg
   width="32"
   height="32"
   version="1.1"
   id="svg2046"
   sodipodi:docname="lutris.svg"
   inkscape:version="1.2.2 (b0a8486541, 2022-12-01)"
   xmlns:inkscape="http://www.inkscape.org/namespaces/inkscape"
   xmlns:sodipodi="http://sodipodi.sourceforge.net/DTD/sodipodi-0.dtd"
   xmlns="http://www.w3.org/2000/svg"
   xmlns:svg="http://www.w3.org/2000/svg">
  <sodipodi:namedview
     id="namedview2048"
     pagecolor="#cccccc"
     bordercolor="#000000"
     borderopacity="1"
     inkscape:showpageshadow="2"
     inkscape:pageopacity="0"
     inkscape:pagecheckerboard="0"
     inkscape:deskcolor="#808080"
     showgrid="false"
     inkscape:zoom="10.429825"
     inkscape:cx="15.963834"
     inkscape:cy="21.333052"
     inkscape:window-width="1920"
     inkscape:window-height="1002"
     inkscape:window-x="0"
     inkscape:window-y="0"
     inkscape:window-maximized="1"
     inkscape:current-layer="svg2046">
    <inkscape:grid
       type="xygrid"
       id="grid224"
       originx="0"
       originy="0" />
  </sodipodi:namedview>
  <defs
     id="l4k1">
    <style
       id="current-color-scheme"
       type="text/css">
   .ColorScheme-Background {color:#181818; } .ColorScheme-ButtonBackground { color:#343434; } .ColorScheme-Highlight { color:#4285f4; } .ColorScheme-Text { color:#dfdfdf; } .ColorScheme-ViewBackground { color:#242424; } .ColorScheme-NegativeText { color:#f44336; } .ColorScheme-PositiveText { color:#4caf50; } .ColorScheme-NeutralText { color:#ff9800; }
  </style>
    <linearGradient
       id="f"
       gradientUnits="userSpaceOnUse"
       x1="48"
       x2="48"
       y1="90"
       y2="5.9877172"
       gradientTransform="matrix(0.5,0,0,0.5,47.90916,-20.93187)">
      <stop
         offset="0"
         stop-color="#fe5f00"
         id="stop2130" />
      <stop
         offset="1"
         stop-color="#ffa100"
         id="stop2132" />
    </linearGradient>
  </defs>
  <g
     id="lutris">
    <rect
       style="opacity:0.00100002;fill:#d3dae3;fill-opacity:1"
       width="32"
       height="32"
       x="0"
       y="0"
       id="rect2039" />
    <path
       d="m 16,4.0000013 c -6.626947,0 -12.000015,5.3730606 -12.000015,11.9999807 0,6.62696 5.373068,12.00002 12.000015,12.00002 6.626946,0 12.000015,-5.37306 12.000015,-12.00002 C 28.000015,9.3730619 22.626946,4.0000013 16,4.0000013 Z m 0,0 z"
       id="path2107-9-0"
       sodipodi:nodetypes="ssssscccccccccc"
       style="fill:#d3dae3;fill-opacity:1;stroke-width:0.0244899" />
    <path
       d="M 15.654338,23.865778 C 14.772426,23.535589 9.826945,21.251941 9.695962,21.114405 9.613822,21.028125 9.558018,20.548748 9.53507,19.732121 L 9.5,18.481896 l 2.512733,-1.39932 c 1.382001,-0.769626 2.522024,-1.387453 2.533384,-1.372952 0.01133,0.01453 0.04846,0.305121 0.08255,0.645819 0.06136,0.614849 0.05959,0.620381 -0.238882,0.744031 -0.44304,0.183508 -1.075795,0.840596 -1.154477,1.198868 -0.215342,0.980441 0.733491,1.740363 2.357952,1.888492 1.781292,0.162426 3.441011,-0.691164 3.441011,-1.769687 0,-0.546197 -0.302945,-0.933902 -1.034132,-1.323445 -0.373261,-0.198855 -0.37835,-0.209748 -0.37835,-0.811661 0,-0.561041 0.01595,-0.605018 0.198727,-0.54702 0.330367,0.104868 4.775159,2.159563 4.853111,2.243463 0.07756,0.08353 -0.02367,2.500837 -0.108151,2.581483 -0.07423,0.07085 -5.143893,3.040125 -5.498585,3.220475 -0.520645,0.264724 -0.875972,0.286193 -1.412475,0.08531 z m -0.605352,-4.339166 c -0.633654,-0.15292 -1.261142,-0.61529 -1.261142,-0.929288 0,-0.289905 0.572279,-0.860479 1.064768,-1.061599 l 0.454164,-0.185474 -0.05581,-0.655788 C 15.157066,15.590012 14.796699,9.340692 14.796699,8.817291 14.796699,8.154964 15.028217,8 16.017729,8 c 0.56121,0 0.784189,0.0444 0.987819,0.196596 l 0.262988,0.196587 -0.03671,1.5526846 c -0.02024,0.8539824 -0.08831,2.8414404 -0.151342,4.4165854 l -0.114584,2.863895 0.35312,0.160076 c 1.223378,0.55458 1.441622,1.21318 0.586439,1.769698 -0.598945,0.389774 -2.015358,0.573481 -2.856496,0.37049 z"
       stroke-width="0.100891"
       id="path2165"
       style="fill:#088699;fill-opacity:1" />
  </g>
  <g
     id="22-22-lutris"
     transform="translate(32,10)">
    <rect
       style="opacity:0.00100002;fill:#d3dae3;fill-opacity:1"
       width="22"
       height="22"
       x="0"
       y="0"
       id="rect2032" />
    <path
       d="M 11.00001,3 C 6.582045,3 3,6.582041 3,10.999988 3,15.417961 6.582045,19 11.00001,19 15.417974,19 19.00002,15.417961 19.00002,10.999988 19.00002,6.582041 15.417974,3 11.00001,3 Z m 0,0 z"
       id="path2107-9-0-6"
       sodipodi:nodetypes="ssssscccccccccc"
       style="fill:#d3dae3;fill-opacity:1;stroke-width:0.0163266" />
    <path
       d="M 10.615749,16.899334 C 9.954317,16.651692 6.245209,14.938956 6.146971,14.835804 6.0853659,14.771094 6.043514,14.411561 6.026302,13.79909 L 6,12.861422 7.8845495,11.811934 C 8.921054,11.234711 9.776071,10.771337 9.784591,10.782222 c 0.0083,0.01093 0.03638,0.22884 0.06185,0.484355 0.04606,0.461144 0.04472,0.465289 -0.179162,0.558027 -0.33228,0.13763 -0.806844,0.630452 -0.865856,0.899151 -0.161507,0.735332 0.550113,1.305274 1.768463,1.416371 1.335966,0.121819 2.580759,-0.518374 2.580759,-1.327265 0,-0.409645 -0.227209,-0.700425 -0.7756,-0.992587 -0.279949,-0.149139 -0.283762,-0.157309 -0.283762,-0.608745 0,-0.420778 0.01195,-0.453757 0.149047,-0.410268 0.247769,0.07864 3.581364,1.619678 3.639831,1.682598 0.05818,0.06266 -0.01771,1.875631 -0.08108,1.936116 -0.05573,0.05313 -3.857923,2.280094 -4.123944,2.415356 -0.390482,0.198543 -0.656973,0.214645 -1.059356,0.06399 z m -0.454007,-3.254375 c -0.475246,-0.11469 -0.945858,-0.461468 -0.945858,-0.696966 0,-0.217427 0.429205,-0.645357 0.798572,-0.796197 l 0.34063,-0.139106 -0.04181,-0.49184 C 10.242866,10.692503 9.972574,6.005522 9.972574,5.612971 9.972574,5.11622 10.146212,5 10.888346,5 c 0.420908,0 0.588146,0.03326 0.740862,0.147446 l 0.197243,0.147447 -0.02751,1.164505 c -0.01514,0.640492 -0.06627,2.131081 -0.11351,3.312445 l -0.0859,2.147916 0.26484,0.120061 c 0.917535,0.415936 1.081218,0.909883 0.439829,1.327271 -0.449207,0.292331 -1.511519,0.430111 -2.14237,0.277868 z"
       stroke-width="0.0756676"
       id="path2165-3"
       style="fill:#088699;fill-opacity:1" />
  </g>
</svg>
