<?xml version="1.0" encoding="UTF-8" standalone="no"?>
<svg
   style="isolation:isolate"
   viewBox="0 0 36 36"
   width="36pt"
   height="36pt"
   version="1.1"
   id="svg9"
   sodipodi:docname="suspend.svg"
   inkscape:version="1.1.2 (0a00cf5339, 2022-02-04)"
   xmlns:inkscape="http://www.inkscape.org/namespaces/inkscape"
   xmlns:sodipodi="http://sodipodi.sourceforge.net/DTD/sodipodi-0.dtd"
   xmlns:xlink="http://www.w3.org/1999/xlink"
   xmlns="http://www.w3.org/2000/svg"
   xmlns:svg="http://www.w3.org/2000/svg"
   xmlns:rdf="http://www.w3.org/1999/02/22-rdf-syntax-ns#"
   xmlns:cc="http://creativecommons.org/ns#"
   xmlns:dc="http://purl.org/dc/elements/1.1/">
  <metadata
     id="metadata15">
    <rdf:RDF>
      <cc:Work
         rdf:about="">
        <dc:format>image/svg+xml</dc:format>
        <dc:type
           rdf:resource="http://purl.org/dc/dcmitype/StillImage" />
      </cc:Work>
    </rdf:RDF>
  </metadata>
  <defs
     id="defs13">
    <linearGradient
       inkscape:collect="always"
       xlink:href="#linearGradient1089"
       id="linearGradient1428"
       x1="5.199615"
       y1="16"
       x2="26.799622"
       y2="16"
       gradientUnits="userSpaceOnUse"
       gradientTransform="matrix(1.4999999,0,0,1.4999999,-5.9494199,-5.9999995)" />
    <linearGradient
       inkscape:collect="always"
       id="linearGradient1089">
      <stop
         style="stop-color:#5c5c88;stop-opacity:1"
         offset="0"
         id="stop1085" />
      <stop
         style="stop-color:#088699;stop-opacity:1"
         offset="1"
         id="stop1087" />
    </linearGradient>
    <linearGradient
       inkscape:collect="always"
       xlink:href="#linearGradient1089"
       id="linearGradient1444"
       x1="16.26981"
       y1="16.541674"
       x2="21.400171"
       y2="16.541674"
       gradientUnits="userSpaceOnUse"
       gradientTransform="matrix(1.4999999,0,0,1.4999999,-5.9494199,-5.9999995)" />
    <linearGradient
       inkscape:collect="always"
       xlink:href="#linearGradient1089"
       id="linearGradient1452"
       x1="21.939554"
       y1="18.70681"
       x2="26.529545"
       y2="18.70681"
       gradientUnits="userSpaceOnUse"
       gradientTransform="matrix(1.4999999,0,0,1.4999999,-5.9494199,-5.9999995)" />
    <linearGradient
       inkscape:collect="always"
       xlink:href="#linearGradient1089"
       id="linearGradient1436"
       x1="9.5194645"
       y1="13.68118"
       x2="16"
       y2="13.68118"
       gradientUnits="userSpaceOnUse"
       gradientTransform="matrix(1.4999999,0,0,1.4999999,-5.9494199,-5.9999995)" />
  </defs>
  <sodipodi:namedview
     pagecolor="#ffffff"
     bordercolor="#666666"
     borderopacity="1"
     objecttolerance="10"
     gridtolerance="10"
     guidetolerance="10"
     inkscape:pageopacity="0"
     inkscape:pageshadow="2"
     inkscape:window-width="1920"
     inkscape:window-height="1009"
     id="namedview11"
     showgrid="true"
     inkscape:zoom="8.0976802"
     inkscape:cx="-0.74095295"
     inkscape:cy="22.599065"
     inkscape:window-x="0"
     inkscape:window-y="0"
     inkscape:window-maximized="1"
     inkscape:current-layer="svg9"
     inkscape:document-rotation="0"
     inkscape:pagecheckerboard="0"
     inkscape:document-units="pt"
     inkscape:showpageshadow="false">
    <inkscape:grid
       type="xygrid"
       id="grid1063" />
  </sodipodi:namedview>
  <linearGradient
     id="_lgradient_0"
     x1="0"
     y1="0.5"
     x2="1"
     y2="0.5"
     gradientTransform="matrix(33,0,0,33,0.5,0.5)"
     gradientUnits="userSpaceOnUse">
    <stop
       offset="0%"
       stop-opacity="1"
       style="stop-color:#00a9a5"
       id="stop2" />
    <stop
       offset="97.82608695652173%"
       stop-opacity="1"
       style="stop-color:#00a9a5"
       id="stop4" />
  </linearGradient>
  <path
     d="M 33.911909,4.5859319 C 30.381198,1.628928 25.826005,0 21.087605,0 10.479444,0 1.85,8.074997 1.85,18 c 0,9.925002 8.629444,17.999999 19.237605,17.999999 4.387474,0 8.522569,-1.349857 11.957086,-3.904003 0.369478,-0.274266 0.487256,-0.751914 0.283004,-1.150343 -0.204274,-0.398448 -0.676044,-0.611622 -1.135563,-0.515628 -0.97601,0.205902 -1.969034,0.309708 -2.950987,0.309708 -6.467732,0 -12.002133,-4.313952 -13.157913,-10.257156 -0.09988,-0.514782 -0.627724,-0.855216 -1.17731,-0.762282 -0.551078,0.09432 -0.915776,0.587628 -0.815306,1.102428 1.27869,6.568074 7.197989,11.407861 14.254905,11.787859 -2.249948,0.984346 -4.705948,1.4947 -7.257308,1.4947 -9.490549,0 -17.212315,-7.225001 -17.212315,-16.104995 3.06e-4,-8.880714 7.720996,-16.1049951 17.212315,-16.1049951 2.869306,0 5.66349,0.667692 8.149256,1.919646 -4.39425,0.00112 -8.58973,1.7647741 -11.511251,4.8404151 -0.370674,0.391194 -0.333098,0.989929 0.08496,1.337652 0.417166,0.348498 1.05715,0.311959 1.429304,-0.07866 2.537981,-2.671848 6.183509,-4.204782 10.001261,-4.204782 1.251299,0 2.501647,0.16596 3.71501,0.493577 0.454434,0.12276 0.937828,-0.06462 1.16653,-0.451997 0.228722,-0.3870001 0.14158,-0.8697241 -0.210804,-1.1646541 z"
     id="path70-3-3-1"
     style="fill:url(#linearGradient1428);fill-opacity:1;stroke-width:0.0738432" />
  <path
     d="m 18.533286,21.637853 c 0.15644,0.354078 0.524834,0.58482 0.934548,0.58482 h 5.670285 c 0.559714,0 1.012714,-0.424098 1.012714,-0.947286 0,-0.523151 -0.45356,-0.946709 -1.012714,-0.946709 h -3.22567 l 3.53576,-3.309139 c 0.290154,-0.271224 0.376622,-0.678851 0.220064,-1.03293 -0.15664,-0.354078 -0.525714,-0.584261 -0.935462,-0.584261 h -5.265683 c -0.558818,0 -1.011802,0.424368 -1.011802,0.947285 0,0.5229 0.45356,0.947286 1.011802,0.947286 h 2.820681 l -3.536367,3.30885 c -0.289562,0.270936 -0.376032,0.678024 -0.218288,1.032084 z"
     id="path72-6-6-2"
     style="fill:url(#linearGradient1444);fill-opacity:1;stroke-width:0.0738432" />
  <path
     d="m 32.832467,23.223563 h -2.414843 l 2.784341,-2.604924 c 0.28955,-0.271206 0.375718,-0.678851 0.219174,-1.03293 -0.15662,-0.35406 -0.525736,-0.584261 -0.935476,-0.584261 l -4.512966,2.88e-4 c -0.559734,0 -1.01273,0.424385 -1.01273,0.947285 0,0.522882 0.453576,0.947286 1.01273,0.947286 h 2.068349 l -2.784337,2.6055 c -0.289866,0.270378 -0.37634,0.678006 -0.21978,1.032066 0.15662,0.354078 0.525732,0.585108 0.935466,0.585108 h 4.859782 c 0.559724,0 1.012718,-0.424385 1.012718,-0.947574 0,-0.52344 -0.45266,-0.947844 -1.012412,-0.947844 z"
     id="path74-7-7-7"
     style="fill:url(#linearGradient1452);fill-opacity:1;stroke-width:0.0738432" />
  <path
     d="m 8.406816,18.227141 c 0.15664,0.354078 0.525734,0.58482 0.935462,0.58482 h 7.695044 c 0.560022,0 1.013256,-0.424368 1.013256,-0.947268 0,-0.523728 -0.453554,-0.947592 -1.013256,-0.947592 H 11.78744 l 5.416848,-5.06835 c 0.289558,-0.270918 0.375726,-0.678294 0.219178,-1.032354 -0.15664,-0.354078 -0.525728,-0.58482 -0.935476,-0.58482 H 9.342438 c -0.55882,0 -1.011802,0.424386 -1.011802,0.947286 0,0.52371 0.45356,0.947574 1.011802,0.947574 h 4.700244 l -5.415384,5.06835 c -0.290746,0.270936 -0.37693,0.678006 -0.220672,1.032354 z"
     id="path76-53-5-0"
     style="fill:url(#linearGradient1436);fill-opacity:1;stroke-width:0.0738432" />
</svg>
